<?xml version="1.0" encoding="utf-8"?>
<!-- Generator: Adobe Illustrator 24.3.0, SVG Export Plug-In . SVG Version: 6.00 Build 0)  -->
<svg version="1.1" id="Capa_1" xmlns="http://www.w3.org/2000/svg" xmlns:xlink="http://www.w3.org/1999/xlink" x="0px" y="0px"
	 viewBox="0 0 1122 1122" style="enable-background:new 0 0 1122 1122;" xml:space="preserve">
<style type="text/css">
	.st0{fill:none;}
	.st1{fill:#45698C;}
	.st2{fill:#4B7399;}
	.st3{fill:#6599CC;}
	.st4{fill:none;stroke:#4B7399;stroke-width:20;stroke-miterlimit:10;}
</style>
<g id="Bg">
</g>
<g>
	<rect x="209.7" y="413.2" class="st0" width="13.9" height="47.4"/>
	<path class="st0" d="M421.6,568.3c0,81.7,66.3,148,148,148s148-66.3,148-148s-66.3-148-148-148S421.6,486.5,421.6,568.3z
		 M668.2,568.3c0,54.5-44.2,98.7-98.6,98.7c-54.5,0-98.6-44.2-98.6-98.7s44.2-98.6,98.6-98.6C624.1,469.6,668.2,513.8,668.2,568.3z"
		/>
	<path class="st1" d="M262.9,787.1h613.4c21.8,0,39.4-17.6,39.4-39.3V368.5c0-21.8-17.7-39.4-39.4-39.4h-18.1v-17.5
		c0-3.5-2.9-6.3-6.3-6.3h-97.8c-3.4,0-6.3,2.7-6.3,6.3v17.5h-74l-31.5-47.6c0-4-3.8-7.2-8.5-7.2h-43h-42.7h-43
		c-4.7,0-8.5,3.2-8.5,7.2l-31.4,47.6H262.9c-21.7,0-39.4,17.6-39.4,39.4v26.4h-15.7c-9.1,0-16.7,7.4-16.7,16.7v50.8
		c0,9.1,7.4,16.7,16.7,16.7h15.7V748C223.5,769.5,241.2,787.1,262.9,787.1z M698.2,378.5h81.6h81.6v59.8h-81.6h-81.6V378.5z
		 M569.6,420.4c81.7,0,148,66.3,148,148s-66.3,148-148,148s-148-66.3-148-148C421.6,486.5,487.9,420.4,569.6,420.4z M209.7,460.6
		v-47.4h13.9v47.4H209.7z"/>
	<path class="st1" d="M471,568.3c0,54.5,44.2,98.7,98.6,98.7c54.5,0,98.6-44.2,98.6-98.7s-44.2-98.6-98.6-98.6
		C515.1,469.6,471,513.8,471,568.3z"/>
	<rect x="698.2" y="378.5" class="st2" width="81.6" height="59.8"/>
	<rect x="779.8" y="378.5" class="st3" width="81.6" height="59.8"/>
</g>
<path class="st4" d="M941,1038H181c-53.6,0-97-43.4-97-97V181c0-53.6,43.4-97,97-97h760c53.6,0,97,43.4,97,97v760
	C1038,994.6,994.6,1038,941,1038z"/>
</svg>
