<svg xmlns="http://www.w3.org/2000/svg" xmlns:xlink="http://www.w3.org/1999/xlink" viewBox="0 0 155.55 155.55"><defs><style>.cls-1{fill:url(#Degradado_sin_nombre_16);}.cls-2{fill:url(#Degradado_sin_nombre_17);}.cls-3{fill:url(#Degradado_sin_nombre_22);}.cls-4{fill:url(#Degradado_sin_nombre_19);}.cls-5{fill:url(#Degradado_sin_nombre_21);}.cls-6{fill:url(#Degradado_sin_nombre_21-2);}.cls-7{fill:url(#Degradado_sin_nombre_22-2);}</style><linearGradient id="Degradado_sin_nombre_16" x1="499.75" y1="529.74" x2="809.41" y2="529.74" gradientTransform="matrix(0, 1, 1, 0, -451.97, -499.75)" gradientUnits="userSpaceOnUse"><stop offset="0" stop-color="#5fb1d4"/><stop offset="0.13" stop-color="#699fd8"/><stop offset="0.39" stop-color="#8272e3"/><stop offset="0.76" stop-color="#aa29f5"/><stop offset="0.95" stop-color="#c000ff"/></linearGradient><linearGradient id="Degradado_sin_nombre_17" x1="508.11" y1="529.74" x2="784.47" y2="529.74" gradientTransform="matrix(0, 1, 1, 0, -451.97, -499.75)" gradientUnits="userSpaceOnUse"><stop offset="0" stop-color="#fff"/><stop offset="0.87" stop-color="#a7f5ff"/></linearGradient><linearGradient id="Degradado_sin_nombre_22" x1="67.05" y1="383.11" x2="66.58" y2="218.07" gradientTransform="matrix(1, 0, 0, -1, 0, 356.23)" gradientUnits="userSpaceOnUse"><stop offset="0.05" stop-color="#c000ff"/><stop offset="0.86" stop-color="#5fb1d4"/></linearGradient><linearGradient id="Degradado_sin_nombre_19" x1="92.91" y1="278.09" x2="147.27" y2="278.09" gradientTransform="matrix(1, 0, 0, -1, 0, 356.23)" gradientUnits="userSpaceOnUse"><stop offset="0" stop-color="#9100ff"/><stop offset="0.92" stop-color="#4d00cb"/></linearGradient><linearGradient id="Degradado_sin_nombre_21" x1="96.9" y1="235.16" x2="96.54" y2="272.58" gradientTransform="matrix(1, 0, 0, -1, 0, 356.23)" gradientUnits="userSpaceOnUse"><stop offset="0" stop-color="#4d00cb"/><stop offset="0.9" stop-color="#9100ff"/></linearGradient><linearGradient id="Degradado_sin_nombre_21-2" x1="99.82" y1="330.1" x2="95.38" y2="289.11" xlink:href="#Degradado_sin_nombre_21"/><linearGradient id="Degradado_sin_nombre_22-2" x1="76.4" y1="364.64" x2="75.94" y2="199.59" xlink:href="#Degradado_sin_nombre_22"/></defs><g id="Capa_2" data-name="Capa 2"><g id="Capa_1-2" data-name="Capa 1"><circle class="cls-1" cx="77.77" cy="77.78" r="77.78"/><circle class="cls-2" cx="77.77" cy="77.78" r="69.41"/><path class="cls-3" d="M47.2,42.56v71.7a2.19,2.19,0,0,0,1.8,2.15l34.71,6.26a2.19,2.19,0,0,0,2.58-2.15V36.31a2.19,2.19,0,0,0-2.58-2.16L49,40.41A2.19,2.19,0,0,0,47.2,42.56Z"/><path class="cls-4" d="M126.92,74.75H110.76l-.13-6.82a.88.88,0,0,0-1.46-.64L93.2,78a.87.87,0,0,0,0,1.35L109.59,89a.87.87,0,0,0,1.41-.71l-.12-6.78h16a1.33,1.33,0,0,0,1.32-1.33V76.08A1.33,1.33,0,0,0,126.92,74.75Z"/><path class="cls-5" d="M99.93,86.53v23.15a1.39,1.39,0,0,1-1.39,1.39h-8.4a1.38,1.38,0,0,0-1.39,1.38v2a1.38,1.38,0,0,0,1.39,1.38H103.3a1.38,1.38,0,0,0,1.38-1.38v-25a1.43,1.43,0,0,0-.7-1.24l-3.4-2A.43.43,0,0,0,99.93,86.53Z"/><path class="cls-6" d="M90.14,45.4h8.4a1.39,1.39,0,0,1,1.39,1.39V70.18a.5.5,0,0,0,.78.42l3.61-2.43a.82.82,0,0,0,.37-.68V42a1.39,1.39,0,0,0-1.39-1.39H90.14A1.39,1.39,0,0,0,88.75,42v2A1.39,1.39,0,0,0,90.14,45.4Z"/><path class="cls-7" d="M83.71,34.15,66,37.34v82.14l17.68,3.19a2.19,2.19,0,0,0,2.58-2.15V36.31A2.19,2.19,0,0,0,83.71,34.15Z"/></g></g></svg>