<?xml version="1.0" encoding="utf-8"?>
<!-- Generator: Adobe Illustrator 24.3.0, SVG Export Plug-In . SVG Version: 6.00 Build 0)  -->
<svg version="1.1" xmlns="http://www.w3.org/2000/svg" xmlns:xlink="http://www.w3.org/1999/xlink" x="0px" y="0px"
	 viewBox="0 0 1122 1122" style="enable-background:new 0 0 1122 1122;" xml:space="preserve">
<style type="text/css">
	.st0{fill:none;}
	.st1{fill:#45698C;}
	.st2{fill:#4B7399;}
	.st3{fill:#6599CC;}
	.st4{fill:none;stroke:#4B7399;stroke-width:20;stroke-miterlimit:10;}
	.st5{fill:#FFFFFF;}
</style>
<g id="Bg">
</g>
<g id="Object">
	<g>
		<rect x="246.1" y="351.2" class="st0" width="12.2" height="41.5"/>
		<path class="st0" d="M431.6,487c0,71.5,58,129.5,129.5,129.5c71.5,0,129.5-58,129.5-129.5c0-71.5-58-129.5-129.5-129.5
			C489.6,357.5,431.6,415.4,431.6,487z M647.4,487c0,47.7-38.7,86.4-86.3,86.4c-47.7,0-86.3-38.7-86.3-86.4
			c0-47.7,38.7-86.3,86.3-86.3C608.8,400.6,647.4,439.3,647.4,487z"/>
		<path class="st1" d="M292.7,678.5h536.8c19.1,0,34.5-15.4,34.5-34.4v-332c0-19.1-15.5-34.5-34.5-34.5h-15.8v-15.3
			c0-3.1-2.5-5.5-5.5-5.5h-85.6c-3,0-5.5,2.4-5.5,5.5v15.3h-64.8l-27.6-41.7c0-3.5-3.3-6.3-7.4-6.3h-37.6h-37.4h-37.6
			c-4.1,0-7.4,2.8-7.4,6.3l-27.5,41.7H292.7c-19,0-34.5,15.4-34.5,34.5v23.1h-13.7c-8,0-14.6,6.5-14.6,14.6v44.5
			c0,8,6.5,14.6,14.6,14.6h13.7v235.3C258.2,663.1,273.7,678.5,292.7,678.5z M673.7,320.9h71.4h71.4v52.3h-71.4h-71.4V320.9z
			 M561.1,357.5c71.5,0,129.5,58,129.5,129.5c0,71.5-58,129.5-129.5,129.5c-71.5,0-129.5-58-129.5-129.5
			C431.6,415.4,489.6,357.5,561.1,357.5z M246.1,392.7v-41.5h12.2v41.5H246.1z"/>
		<path class="st1" d="M474.8,487c0,47.7,38.7,86.4,86.3,86.4c47.7,0,86.3-38.7,86.3-86.4c0-47.7-38.7-86.3-86.3-86.3
			C513.4,400.6,474.8,439.3,474.8,487z"/>
		<rect x="673.7" y="320.9" class="st2" width="71.4" height="52.3"/>
		<rect x="745.1" y="320.9" class="st3" width="71.4" height="52.3"/>
	</g>
	<path class="st4" d="M941,1038H181c-53.6,0-97-43.4-97-97V181c0-53.6,43.4-97,97-97h760c53.6,0,97,43.4,97,97v760
		C1038,994.6,994.6,1038,941,1038z"/>
	<g>
		<path class="st5" d="M246.7,846.8c0,3.8-2.5,6.7-6.3,6.7c-3.8,0-6.3-2.9-6.3-6.7c0-3.9,2.7-6.6,6.4-6.6
			C244.2,840.1,246.7,842.9,246.7,846.8z M235.2,913.7l1.5-51.2h7.3l1.6,51.2H235.2z"/>
		<path class="st5" d="M298.3,858.6h-28.1v26.1h31.3v7.8h-40.7v-72.3h39.1v7.8h-29.7v22.9h28.1V858.6z"/>
		<path class="st5" d="M312,882.8c2.8,1.8,7.7,3.8,12.4,3.8c6.9,0,10.1-3.4,10.1-7.7c0-4.5-2.7-7-9.7-9.5
			c-9.3-3.3-13.7-8.5-13.7-14.7c0-8.4,6.8-15.2,17.9-15.2c5.3,0,9.9,1.5,12.8,3.2l-2.4,6.9c-2-1.3-5.8-3-10.6-3
			c-5.6,0-8.7,3.2-8.7,7.1c0,4.3,3.1,6.2,9.9,8.8c9,3.4,13.6,7.9,13.6,15.7c0,9.1-7.1,15.6-19.4,15.6c-5.7,0-10.9-1.4-14.6-3.5
			L312,882.8z"/>
		<path class="st5" d="M392.9,890.5c-2.5,1.3-7.9,3-14.9,3c-15.7,0-25.9-10.6-25.9-26.5c0-16,10.9-27.6,27.9-27.6
			c5.6,0,10.5,1.4,13.1,2.7l-2.1,7.3c-2.3-1.3-5.8-2.5-10.9-2.5c-11.9,0-18.4,8.8-18.4,19.6c0,12,7.7,19.4,18,19.4
			c5.4,0,8.9-1.4,11.6-2.6L392.9,890.5z"/>
		<path class="st5" d="M432.7,892.5l-0.8-6.5h-0.3c-2.9,4.1-8.5,7.7-15.9,7.7c-10.5,0-15.9-7.4-15.9-14.9
			c0-12.6,11.2-19.4,31.2-19.3v-1.1c0-4.3-1.2-12-11.8-12c-4.8,0-9.9,1.5-13.5,3.9l-2.1-6.2c4.3-2.8,10.5-4.6,17.1-4.6
			c15.9,0,19.7,10.8,19.7,21.2V880c0,4.5,0.2,8.9,0.9,12.4H432.7z M431.3,866c-10.3-0.2-22,1.6-22,11.7c0,6.1,4.1,9,8.9,9
			c6.8,0,11.1-4.3,12.6-8.7c0.3-1,0.5-2,0.5-3V866z"/>
		<path class="st5" d="M455.7,854.6c0-5.4-0.1-9.8-0.4-14.1h8.4l0.5,8.6h0.2c2.6-4.9,8.6-9.8,17.2-9.8c7.2,0,18.3,4.3,18.3,22.1v31
			h-9.4v-29.9c0-8.4-3.1-15.4-12-15.4c-6.2,0-11.1,4.4-12.7,9.7c-0.4,1.2-0.6,2.8-0.6,4.4v31.2h-9.4V854.6z"/>
		<path class="st5" d="M520.5,868.2c0.2,12.8,8.4,18,17.8,18c6.8,0,10.8-1.2,14.4-2.7l1.6,6.8c-3.3,1.5-9,3.2-17.3,3.2
			c-16,0-25.5-10.5-25.5-26.2s9.2-28,24.4-28c17,0,21.5,14.9,21.5,24.5c0,1.9-0.2,3.4-0.3,4.4H520.5z M548.2,861.5
			c0.1-6-2.5-15.3-13.1-15.3c-9.5,0-13.7,8.8-14.5,15.3H548.2z"/>
		<path class="st5" d="M597.8,892.5l-0.8-6.5h-0.3c-2.9,4.1-8.5,7.7-15.9,7.7c-10.5,0-15.9-7.4-15.9-14.9
			c0-12.6,11.2-19.4,31.2-19.3v-1.1c0-4.3-1.2-12-11.8-12c-4.8,0-9.9,1.5-13.5,3.9l-2.1-6.2c4.3-2.8,10.5-4.6,17.1-4.6
			c15.9,0,19.7,10.8,19.7,21.2V880c0,4.5,0.2,8.9,0.9,12.4H597.8z M596.4,866c-10.3-0.2-22,1.6-22,11.7c0,6.1,4.1,9,8.9,9
			c6.8,0,11.1-4.3,12.6-8.7c0.3-1,0.5-2,0.5-3V866z"/>
		<path class="st5" d="M648.8,868.2c0.2,12.8,8.4,18,17.8,18c6.8,0,10.8-1.2,14.4-2.7l1.6,6.8c-3.3,1.5-9,3.2-17.3,3.2
			c-16,0-25.5-10.5-25.5-26.2s9.2-28,24.4-28c17,0,21.5,14.9,21.5,24.5c0,1.9-0.2,3.4-0.3,4.4H648.8z M676.5,861.5
			c0.1-6-2.5-15.3-13.1-15.3c-9.5,0-13.7,8.8-14.5,15.3H676.5z"/>
		<path class="st5" d="M697.3,816.3h9.4v76.2h-9.4V816.3z"/>
		<path class="st5" d="M805.4,903.1c-9.8-2.6-19.3-5.5-27.7-8.4c-1.5-0.5-3-1.1-4.4-1.1c-17.2-0.6-31.9-13.3-31.9-36.6
			c0-23.2,14.2-38.1,33.7-38.1c19.6,0,32.4,15.2,32.4,36.6c0,18.6-8.6,30.5-20.6,34.7v0.4c7.2,1.8,15,3.5,21.1,4.6L805.4,903.1z
			 M797.7,856c0-14.5-7.5-29.4-22.9-29.4c-15.8,0-23.5,14.6-23.4,30.3c-0.1,15.3,8.4,29.2,23,29.2C789.3,886,797.7,872.5,797.7,856z
			"/>
		<path class="st5" d="M819.7,821.1c4.7-1,11.5-1.5,17.9-1.5c10,0,16.4,1.8,20.9,5.9c3.6,3.2,5.7,8.2,5.7,13.7
			c0,9.5-6,15.9-13.6,18.5v0.3c5.6,1.9,8.9,7.1,10.6,14.6c2.4,10.1,4.1,17.1,5.6,19.8h-9.7c-1.2-2-2.8-8.3-4.8-17.3
			c-2.1-10-6-13.7-14.5-14.1h-8.8v31.3h-9.3V821.1z M829.1,854.1h9.5c10,0,16.3-5.5,16.3-13.7c0-9.3-6.8-13.4-16.6-13.5
			c-4.5,0-7.7,0.4-9.2,0.9V854.1z"/>
		<path class="st5" d="M875.3,887c0-3.9,2.7-6.7,6.3-6.7c3.9,0,6.3,2.8,6.3,6.7c0,3.7-2.5,6.6-6.3,6.6
			C877.9,893.7,875.3,890.8,875.3,887z M878,871.7l-1.5-51.5h10.3l-1.5,51.5H878z"/>
	</g>
</g>
</svg>
