<?xml version="1.0" encoding="utf-8"?>
<!-- Generator: Adobe Illustrator 24.3.0, SVG Export Plug-In . SVG Version: 6.00 Build 0)  -->
<svg version="1.1" id="Capa_1" xmlns="http://www.w3.org/2000/svg" xmlns:xlink="http://www.w3.org/1999/xlink" x="0px" y="0px"
	 viewBox="0 0 1122 1122" style="enable-background:new 0 0 1122 1122;" xml:space="preserve">
<style type="text/css">
	.st0{fill:none;stroke:#4B7399;stroke-width:20;stroke-miterlimit:10;}
	.st1{fill:#4B7399;stroke:#FFFFFF;stroke-miterlimit:10;}
</style>
<g id="Bg">
</g>
<path class="st0" d="M941,1038H181c-53.6,0-97-43.4-97-97V181c0-53.6,43.4-97,97-97h760c53.6,0,97,43.4,97,97v760
	C1038,994.6,994.6,1038,941,1038z"/>
<g>
	<path class="st1" d="M249.2,592.7c0-10.6,0-21.1,0-31.7c31.1,0,62.2,0,93.3,0c0-10.8,0-20.7,0-31.3c-20.7,0-41,0-61.5,0
		c0-10.8,0-20.9,0-30.9l-0.2,0.1c30.8,0,61.7,0,92.7,0c0-11.3,0-21.6,0-31.8l-0.2,0.1c10.5,0,20.9,0,31.9,0c0,10.9,0,21,0,30.9
		c31.4,0,62.3,0,93.1,0c0-20.7,0-40.9,0-61.1c-10.5,0-20.7,0-30.9,0l0.2,0.2c-0.1-21.3-0.2-42.6-0.4-64l-0.2,0.1
		c10.4,0,20.9,0,31.8,0c0,11.3,0,21.2,0,31.3c20.9,0,41.2,0,62.2,0c0-10.3,0-20.4,0-30.9c9.1,0,17.6,0.2,26.1-0.1
		c4.1-0.1,5.2,1.4,5.1,5.3c-0.2,8.5-0.1,16.9-0.1,26.1c10.6,0,20.6,0,30.9,0c0,11.1,0,21.4,0,31.7c-1.2-0.2-2.4-0.5-3.6-0.5
		c-28.6,0-57.2,0-85.8,0c-1.2,0-2.3,0.3-3.6,0.5c0,20.6,0,41,0,62.1c10.5,0,20.5,0,31,0c0,10.6,0,20.4,0,31c10.5,0,20.6,0,31.4,0
		c0,10.9,0,21,0,31.1l0.2-0.2c-20.8,0-41.6,0-63.2,0c0-10.6,0-20.6,0-30.7c-21.1,0-41.5,0-61.8,0c0,10.5,0,20.5,0,31.1
		c10.5,0,20.5,0,31,0c0,10.9,0,21.2,0,31.5l0.2-0.1c-20.8,0-41.5,0-62.9,0c0,10.6,0,20.4,0,30.6c-10.8,0-20.9,0-31,0
		c0-10.2,0-20.4,0-30.5c-10.8,0-20.6,0-31.6,0c0,10.4,0,20.5,0,30.6c-10.1,0-20.1,0-30.7,0c0-10.6,0-20.5,0-30.9
		c-10.7,0-20.8,0-30.9,0C291,592.4,270.1,592.5,249.2,592.7z M436.3,560.7c0-9.6,0.1-18.7-0.2-27.7c0-1.1-2.5-3.1-3.8-3.1
		c-18.3-0.2-36.5-0.2-54.8,0c-1.2,0-3.5,1.8-3.5,2.8c-0.3,9.3-0.2,18.6-0.2,28.1C394.9,560.7,415.1,560.7,436.3,560.7z"/>
	<path class="st1" d="M467.3,716.8c-10.1,0-20.2,0-30.6,0c0,41.8,0,82.8,0,124.7c20.7,0,41,0,61.7,0c0,10.6,0,20.5,0,31.3
		c-83.1,0-166.1,0-249.2,0c0-62.5,0-125,0-187.5c10.2,0,20.4,0,31.8,0c0-10.5,0-20.5,0-30.5l-0.1,0.2c20.6,0,41.1,0,62.2,0
		c0,10.6,0,20.5,0,30.3c31.3,0,62,0,93.3,0c0-10.3,0-20.1,0-30.3c10.7,0,20.8,0,30.9,0l-0.1-0.2c0,20.8,0,41.5,0,62.3L467.3,716.8z
		 M404.9,717.2c-41.7,0-82.8,0-123.9,0c0,41.5,0,82.8,0,123.8c41.6,0,82.7,0,123.9,0C404.9,799.6,404.9,758.7,404.9,717.2z"/>
	<path class="st1" d="M685,467.1c10.3,0,20.6,0,31.4,0c0-10,0-20,0-30.5c-10,0-19.8,0-30.5,0c0-41.8,0-83,0-124.8
		c-10.6,0-20.5,0-30.8,0c0-10.5,0-20.5,0-31.2c9.9,0,19.7,0,30.1,0c0-10.9,0-21.1,0-31.3c62.5,0,125,0,187.5,0c0,72.5,0,145,0,217.8
		c-10.5,0-20.4,0-31.1,0c0-10,0-20,0-30.3c-31.4,0-61.9,0-93.2,0c0,20.7,0,41.5,0,62.2l0.1-0.2c-20.8,0-41.6,0-63.6,0
		C685,487.6,685,477.4,685,467.1z M717.3,280.8c0,41.5,0,82.8,0,123.9c41.5,0,82.6,0,123.8,0c0-41.5,0-82.5,0-123.9
		C799.7,280.8,758.6,280.8,717.3,280.8z"/>
	<path class="st1" d="M498.9,249.2c-0.1,10.7-0.3,21.5-0.4,32.2l0.2-0.2c-4.4-0.3-8.8-0.7-13.2-0.7c-16-0.1-32,0-48.5,0
		c0,20.8,0,41.3,0,62.3c10,0,19.9,0,30.2,0c0,10.6,0,20.7,0,30.7c0,0,0.2-0.1,0.2-0.1c-10.1,0-20.1,0-30.9,0c0,21.6,0,41.9,0,63
		c-21.1,0-41.4,0-63,0c0,10.8,0,20.9,0,30.9l0.2-0.1c-10.1,0-20.1,0-30.7,0c0-10.4,0-20.2,0-30.4c-10.6,0-20.6,0-31.4,0
		c0,10.3,0,20.3,0,30.4c-10.7,0-20.6,0-30.5,0l0.2,0.1c0-10.2,0-20.3,0-30.5c-11.7,0-21.7,0-31.8,0c0-62.4,0-124.9,0-187.5
		C332.5,249.2,415.7,249.2,498.9,249.2z M404.8,404.9c0-41.7,0-82.8,0-123.9c-41.5,0-82.8,0-123.8,0c0,41.6,0,82.7,0,123.9
		C322.4,404.9,363.3,404.9,404.8,404.9z"/>
	<path class="st1" d="M281,498.8c-10.6,0-21.2,0-31.8,0.1c0-10.6,0-21.1,0-31.7c10.6,0,21.2,0,31.8,0.1c0,0-0.2-0.1-0.2-0.1
		c0,10.6,0,21.2,0,31.8C280.8,499,281,498.8,281,498.8z"/>
	<path class="st1" d="M592.7,249.2c0,10.1,0,20.2,0,30.7c-10.9,0-20.9,0-31.7,0c0-10.3,0-20.5,0-30.7
		C571.6,249.2,582.1,249.2,592.7,249.2z"/>
	<path class="st1" d="M249.2,623.1c10.1,0,20.2,0,31.7,0c0,10.9,0,21.3,0,31.8c0,0,0.1-0.2,0.1-0.2c-10.6,0-21.2,0-31.8,0.1
		C249.2,644.2,249.2,633.7,249.2,623.1z"/>
	<path class="st1" d="M467.3,654.9c0-10.3,0-20.6,0-31.5c10.7,0,20.7,0,31.7,0c0-10.7,0-20.7,0-30.8c0,0-0.2,0.1-0.2,0.1
		c10.2,0,20.4,0,31.3,0c0,10.4,0,20.3,0,30.2c10.5,0,20.4,0,31,0c0-10.3,0-20.3,0-30.3c11,0,21.4,0,31.7,0c0,10,0,20.1,0,30.2
		c31,0,61.7,0,92.5,0c0-10.3,0-20.1,0-30.6c-2.6,0-4.7,0-6.9,0c-22.7,0-45.4,0-68.1,0c-5.9,0-11.7,0.3-17.6,0.5
		c0-10.6,0.1-21.2,0.1-31.8c0,0-0.2,0.2-0.2,0.2c20.6,0,41.1,0,62.1,0c0-10.9,0-20.7,0-30.8c10.4,0,20.4,0,31.2,0
		c0,10.5,0,20.5,0,30.3c31.5,0,62.2,0,93.1,0c0-10.7,0-21,0-31.3l-0.2,0.1c20.6,0,41.3,0,62.5,0c0-10.2,0-20,0-30.2
		c10.7,0,20.7,0,31,0c0,20.4,0,40.6,0,61.5c-9.9,0-19.9,0-30.7,0c0,10.7,0,20.7,0,31.3c-10.6,0-20.5,0-30.9,0c0,10.5,0,20.3,0,31.2
		c-11,0-21.5,0-31.9,0c0-10.2,0-20.4,0-30.6c-21,0-41.2,0-61.6,0c0,10.3,0,20.3,0,30.4c20.9,0,41.3,0,61.8,0c0,20.6,0,41.3,0,62.6
		c10.8,0,20.8,0,31.9,0c0,10.8,0,20.9,0,30.9l0.2-0.2c-10.4,0-20.9,0-32.2,0c0,21.6,0,42.1,0,62.6l0.2-0.1c-30.9,0-61.9,0-94,0
		c0,11.3,0,21.6,0,31.9l0.1-0.2c-9.9,0-19.8,0-30.4,0c0-10.5,0-20.5,0-31.2c-10.7,0-20.7,0-31.4,0c0-21,0-41.4,0-62.6
		c-10.7,0-20.8,0-30.8,0l0.1,0.2c0-10.2,0-20.5,0-31.4c10.2,0,20,0,30,0c0-10.7,0-20.7,0-30.6c-20.7,0-40.9,0-61.9,0
		c0,10.3,0,20.3,0,30.2c-11,0-21.4,0-31.7,0l0.2,0.2c0-10,0-20.1,0-30.6c-21.1,0-41.7,0-62.3,0L467.3,654.9z M748.1,655
		c-31.6,0-62.3,0-93.1,0c0,31.1,0,61.8,0,92.6c1.1,0.2,1.9,0.4,2.7,0.4c28.6,0,57.2-0.1,85.8,0.1c4.6,0,4.7-2.4,4.6-5.7
		c-0.1-17.6,0-35.3,0-52.9C748.1,678.2,748.1,666.9,748.1,655z"/>
	<path class="st1" d="M778.9,779c10.3,0,20.6,0,31.5,0c0,10.7,0,20.7,0,31.4c21,0,41.4,0,62,0c0,20.9,0,41.1,0,61.8
		c-9.9,0-19.9,0-30.7,0c0-9.8,0-19.8,0-30.3c-21.1,0-41.5,0-62.5,0c0,10.2,0,20.2,0,30.5c-10.5,0-20.4,0-31.1,0
		c0-8.4-0.2-16.6,0.1-24.8c0.2-4.7-1.1-6.3-6.1-6.2c-16.4,0.3-32.8,0.1-49.3,0.1c-2.2,0-4.3,0-7.6,0c0-10.8,0-20.9,0-30.9
		c0,0-0.1,0.2-0.1,0.2c31.2,0,62.3,0,94,0c0-11.3,0-21.6,0-31.9L778.9,779z"/>
	<path class="st1" d="M560.9,748.5c0.1,10,0.2,20.1,0.4,30.1c0,0,0.1-0.2,0.1-0.2c-10.3,0-20.5,0-31.5,0c0,11.2,0,21.2,0,31.6
		c-21.1,0-41.4,0-62.2,0c0-10.2,0-20.2,0-30.9c10.2,0,20.3,0,30.6,0c0-10.5,0-20.3,0-30.9c-10.2,0-20.2,0-31.1,0c0-11,0-21.3,0-31.5
		c0,0-0.1,0.2-0.1,0.2c10.4,0,20.8,0,31.7,0c0-10.9,0-20.7,0-31.7c10.5,0,20.5,0,30.6,0l-0.2-0.2c0.2,2.4,0.5,4.8,0.5,7.2
		c0,16.8,0.1,33.5-0.1,50.3c0,4.1,1.1,5.7,5.4,5.6c8.7-0.2,17.3,0.3,26,0.4C561.1,748.7,560.9,748.5,560.9,748.5z"/>
	<path class="st1" d="M810.9,716.6c9.9,0,19.8,0,30.6,0c0-8.6,0.2-17-0.1-25.4c-0.1-4.1,1-5.8,5.4-5.6c8.5,0.3,16.9,0.1,25.6,0.1
		c0,21,0,41.2,0,62c-20.4,0-40.7,0-61.4,0c0-10.3,0-20.7,0-31.2C811.1,716.4,810.9,716.6,810.9,716.6z"/>
	<path class="st1" d="M654.5,842c0,10.3,0,20.1,0,30.3c-20.5,0-40.8,0-61.7,0c0-9.8,0-19.8,0-30.3C613.2,842,633.5,842,654.5,842z"
		/>
	<path class="st1" d="M779.2,499.1c0-10.3,0-20.6,0-31.3c10.3,0,20.3,0,30.8,0c0,9.9,0,19.9,0,31.1c-10.2,0-20.6,0-31,0
		C779,499,779.2,499.1,779.2,499.1z"/>
	<path class="st1" d="M529.8,872.4c0-9.4-0.1-18.3,0.2-27.2c0-1.2,2.2-3.4,3.4-3.5c8.9-0.3,17.8-0.2,27.2-0.2c0,10.4,0,20.4,0,30.8
		C550.6,872.4,540.6,872.4,529.8,872.4z"/>
	<path class="st1" d="M592.7,716.8c-0.1,8.8-0.4,17.7-0.3,26.5c0,3.7-1.2,4.9-4.9,4.9c-8.8-0.1-17.7,0.2-26.5,0.3
		c0,0,0.2,0.1,0.2,0.1c0-10.4,0-20.8,0-31.7c10.9,0,21.3,0,31.7,0L592.7,716.8z"/>
	<path class="st1" d="M841.9,654.3c0-10.2,0-20.2,0-30.6c10.2,0,20.2,0,30.5,0c0,10.2,0,20.2,0,30.6
		C862.3,654.3,852.3,654.3,841.9,654.3z"/>
	<path class="st1" d="M561.3,778.7c10.1,0,20.1,0,30.6,0c0,11,0,21,0,31.4c-10.2,0-20.2,0-30.4,0c0-10.7,0-21.2,0-31.6
		C561.4,778.5,561.3,778.7,561.3,778.7z"/>
	<path class="st1" d="M748.5,499c10.2,0,20.5,0.1,30.7,0.1c0,0-0.2-0.2-0.2-0.2c0,10.1-0.1,20.3-0.1,30.4c0,0,0.2-0.1,0.2-0.1
		c-10.1,0-20.3,0-30.4,0c0-10.4,0-20.4,0-30.4L748.5,499z"/>
	<path class="st1" d="M685.3,467.3c-9.9,0-19.8,0-30.4,0c0,10.5,0,20.5,0,31.2c-10.7,0-20.7,0-31.5,0c0,10.7,0,20.7,0,30.9
		c-10.6,0-20.5,0-30.7,0c0-20.7,0-41,0-62c10.1,0,20,0,30.4,0c0-10.6,0-20.7,0-30.8c20.5,0,41.1,0,62.3,0
		C685.3,447,685.3,457.1,685.3,467.3z"/>
	<path class="st1" d="M622.7,343.4c-6.3-0.2-12.5-0.5-18.8-0.5c-22.3-0.1-44.6,0-66.9,0c-2.2,0-4.4,0-6.8,0c-0.5-10.8-1-21-1.4-31.2
		c0,0-0.2,0.1-0.2,0.1c18.3-0.1,36.5-0.3,54.8-0.4c2.6,0,5.2,0,8.5,0c0-10.2,0-20.1,0-30.5c10.6,0,20.6,0,31.3,0
		c0,6.5,0.1,12.9,0,19.4c-0.2,14.4-0.4,28.7-0.7,43.1C622.6,343.5,622.7,343.4,622.7,343.4z"/>
	<path class="st1" d="M622.6,343.5c10.4,0,20.9,0,31.7,0c0,9.8,0,19.6,0,29.9c-10.1,0-20.1,0-31.5,0c0-10,0-20,0-30
		C622.7,343.4,622.6,343.5,622.6,343.5z"/>
	<path class="st1" d="M498.5,281.4c10-0.5,20.1-0.9,31.7-1.4c-0.5,11.2-0.9,21.5-1.4,31.8c0,0,0.2-0.2,0.1-0.1c-9.7,0-19.4,0-30.2,0
		c0-10.5,0-20.5,0-30.5C498.6,281.3,498.5,281.4,498.5,281.4z"/>
	<path class="st1" d="M373.3,623c10.6,0,21.3,0,31.9,0c0,10.3,0,20.5,0,31.2c-10.5,0-20.4,0-31.9,0
		C373.3,643.8,373.3,633.4,373.3,623z"/>
	<path class="st1" d="M467.5,437.1c0,9.9,0,19.7,0,29.9c-10.5,0-20.4,0-30.6,0c0-10.1,0-20,0-29.7c10.4,0,20.6,0,30.8,0
		C467.7,437.3,467.5,437.1,467.5,437.1z"/>
	<path class="st1" d="M373.5,748.5c0,20.7,0,41,0,61.7c-20.6,0-40.7,0-61.5,0c0-20.4,0-40.9,0-61.7
		C332.4,748.5,352.6,748.5,373.5,748.5z"/>
	<path class="st1" d="M748.5,311.8c20.6,0,41,0,61.6,0c0,20.6,0,40.9,0,61.6c-20.6,0-40.9,0-61.6,0
		C748.5,352.9,748.5,332.5,748.5,311.8z"/>
	<path class="st1" d="M311.8,373.5c0-20.7,0-41,0-61.7c20.7,0,41,0,61.7,0c0,20.7,0,41,0,61.7C352.8,373.5,332.5,373.5,311.8,373.5z
		"/>
	<path class="st1" d="M716.5,716.6c-10.5,0-20.4,0-30.9,0c0-9.4-0.1-18.5,0.1-27.5c0-1.1,2-3.2,3.1-3.2c9.1-0.3,18.2-0.1,27.6-0.1
		C716.5,696.2,716.5,706.2,716.5,716.6z"/>
</g>
</svg>
